# xmcd
#
# Track frame offsets:
#	150
#	39584
#	46368
#	83268
#	93468
#	142279
#	199647
#	237757
#	285024
#
# Disc length: 4067 seconds
#
# Revision: 1
# Processed by: cddbd v1.5.2PL0 Copyright (c) Steve Scherf et al.
# Submitted via: audiograbber 1.83.01
#
DISCID=6d0fe109
DTITLE=Grateful Dead - 73-05-20A Campus Stadium, Santa Barbara CA
DYEAR=1900
DGENRE=
TTITLE0=Truckin'
TTITLE1=Nobody's Fault But Mine Jam
TTITLE2=Jam
TTITLE3=Drums
TTITLE4=The Other One
TTITLE5=Eyes Of The World
TTITLE6=Stella Blue
TTITLE7=Sugar Magnolia
TTITLE8=Johnny B Goode
EXTD=
EXTT0=
EXTT1=
EXTT2=
EXTT3=
EXTT4=
EXTT5=
EXTT6=
EXTT7=
EXTT8=
PLAYORDER=
